<svg width="586" height="493" viewBox="0 0 586 493" fill="none" xmlns="http://www.w3.org/2000/svg">
<line y1="-0.5" x2="215.745" y2="-0.5" transform="matrix(-0.853714 -0.520742 0.579446 -0.815011 350.961 113.212)" stroke="black"/>
<line y1="-0.5" x2="235.223" y2="-0.5" transform="matrix(-0.706628 0.707586 -0.759391 -0.650635 166.777 0.864532)" stroke="black"/>
<line y1="-1.5" x2="396.316" y2="-1.5" transform="matrix(0.884143 0.467216 -0.524438 0.851449 0.561279 167.305)" stroke="black" stroke-width="3"/>
<line y1="-0.5" x2="227.42" y2="-0.5" transform="matrix(-0.790133 0.612936 -0.670676 -0.741751 350.961 352.47)" stroke="black"/>
<line y1="-0.5" x2="202.701" y2="-0.5" transform="matrix(-0.864326 -0.502932 0.561303 -0.82761 175.761 491.865)" stroke="black"/>
<line x1="352.461" y1="0.864532" x2="352.461" y2="491.865" stroke="black" stroke-width="3"/>
<line y1="-0.5" x2="261.043" y2="-0.5" transform="matrix(0.894873 0.44632 -0.50258 0.864531 350.961 0.864532)" stroke="black"/>
<line y1="-0.5" x2="194.82" y2="-0.5" transform="matrix(-0.74941 0.662106 -0.717407 -0.696654 584.561 117.373)" stroke="black"/>
<line y1="-0.5" x2="285.633" y2="-0.5" transform="matrix(0.511145 0.859494 -0.890755 0.454485 438.561 246.365)" stroke="black"/>
</svg>
