<svg width="127" height="106" viewBox="0 0 127 106" fill="none" xmlns="http://www.w3.org/2000/svg">
<line y1="-0.5" x2="46.0484" y2="-0.5" transform="matrix(-0.856122 -0.516774 0.583474 -0.812132 75.5654 24.6588)" stroke="black"/>
<line y1="-0.5" x2="50.0857" y2="-0.5" transform="matrix(-0.710321 0.703878 -0.762743 -0.646702 36.1423 0.86223)" stroke="black"/>
<line y1="-1.5" x2="84.6359" y2="-1.5" transform="matrix(0.886149 0.463401 -0.52842 0.848983 0.56543 36.1165)" stroke="black" stroke-width="3"/>
<line y1="-0.5" x2="48.4875" y2="-0.5" transform="matrix(-0.793225 0.608928 -0.674531 -0.738247 75.5654 75.3368)" stroke="black"/>
<line y1="-0.5" x2="43.2726" y2="-0.5" transform="matrix(-0.866599 -0.499005 0.565328 -0.824866 38.0654 104.862)" stroke="black"/>
<line x1="77.0654" y1="0.86223" x2="77.0654" y2="104.862" stroke="black" stroke-width="3"/>
<line y1="-0.5" x2="55.7584" y2="-0.5" transform="matrix(0.896725 0.442587 -0.506516 0.86223 75.5654 0.86223)" stroke="black"/>
<line y1="-0.5" x2="41.5097" y2="-0.5" transform="matrix(-0.752836 0.658208 -0.721041 -0.692893 125.565 25.5402)" stroke="black"/>
<line y1="-0.5" x2="60.6676" y2="-0.5" transform="matrix(0.515102 0.857129 -0.892666 0.450718 94.3154 52.8622)" stroke="black"/>
</svg>
